<svg xmlns="http://www.w3.org/2000/svg" width="9" height="9" viewBox="0 0 9 9"><g><g><path fill="#fff" d="M8.695.955c-.356.227-.75.392-1.17.482A1.776 1.776 0 0 0 6.181.81c-1.017 0-1.841.888-1.841 1.983 0 .154.016.307.048.451C2.858 3.162 1.5 2.372.592 1.172a2.093 2.093 0 0 0-.248.997c0 .688.325 1.295.818 1.649a1.73 1.73 0 0 1-.834-.247v.024c0 .96.635 1.761 1.477 1.944a1.723 1.723 0 0 1-.832.034c.235.787.915 1.36 1.72 1.376a3.53 3.53 0 0 1-2.726.822c.815.563 1.783.89 2.823.89 3.386 0 5.238-3.02 5.238-5.64l-.006-.257c.361-.278.674-.627.92-1.024-.33.156-.684.264-1.057.311.38-.245.672-.634.81-1.096z"/></g></g></svg>