<svg 
 xmlns="http://www.w3.org/2000/svg"
 xmlns:xlink="http://www.w3.org/1999/xlink"
 viewBox="0 0 7 12">
<path d="M6.288,0.538 L4.939,0.535 C3.423,0.535 2.444,1.562 2.444,3.150 L2.444,4.356 L1.087,4.356 C0.970,4.356 0.875,4.454 0.875,4.573 L0.875,6.320 C0.875,6.440 0.970,6.536 1.087,6.536 L2.444,6.536 L2.444,10.944 C2.444,11.064 2.539,11.161 2.656,11.161 L4.426,11.161 C4.543,11.161 4.638,11.064 4.638,10.944 L4.638,6.536 L6.224,6.536 C6.341,6.536 6.436,6.440 6.436,6.320 L6.437,4.573 C6.437,4.515 6.414,4.460 6.375,4.419 C6.335,4.379 6.281,4.356 6.224,4.356 L4.638,4.356 L4.638,3.334 C4.638,2.842 4.753,2.594 5.379,2.594 L6.288,2.593 C6.405,2.593 6.500,2.496 6.500,2.377 L6.500,0.755 C6.500,0.635 6.405,0.538 6.288,0.538 Z"/>
</svg>