<svg 
 xmlns="http://www.w3.org/2000/svg"
 xmlns:xlink="http://www.w3.org/1999/xlink"
 viewBox="0 0 11 10">
<path d="M10.224,0.947 C9.827,1.200 9.388,1.384 8.921,1.484 C8.546,1.053 8.014,0.786 7.424,0.786 C6.290,0.786 5.372,1.775 5.372,2.995 C5.372,3.167 5.390,3.337 5.425,3.498 C3.720,3.407 2.208,2.526 1.197,1.189 C1.020,1.516 0.919,1.895 0.919,2.300 C0.919,3.067 1.282,3.743 1.832,4.138 C1.495,4.128 1.179,4.028 0.902,3.863 L0.902,3.889 C0.902,4.960 1.610,5.852 2.548,6.056 C2.376,6.106 2.195,6.134 2.007,6.134 C1.875,6.134 1.747,6.119 1.621,6.094 C1.882,6.971 2.640,7.609 3.537,7.628 C2.835,8.221 1.950,8.574 0.989,8.574 C0.824,8.574 0.661,8.563 0.500,8.544 C1.408,9.171 2.486,9.536 3.645,9.536 C7.418,9.536 9.481,6.170 9.481,3.249 L9.475,2.963 C9.877,2.653 10.225,2.265 10.500,1.821 C10.132,1.996 9.737,2.116 9.322,2.169 C9.746,1.896 10.070,1.461 10.224,0.947 Z"/>
</svg>